<mxfile host="app.diagrams.net" agent="Mozilla/5.0 (Windows NT 10.0; Win64; x64) AppleWebKit/537.36 (KHTML, like Gecko) Chrome/131.0.0.0 Safari/537.36" version="26.0.2">
  <diagram name="Page-1" id="03018318-947c-dd8e-b7a3-06fadd420f32">
    <mxGraphModel dx="3354" dy="1258" grid="1" gridSize="10" guides="1" tooltips="1" connect="1" arrows="1" fold="1" page="1" pageScale="1" pageWidth="1100" pageHeight="850" background="none" math="0" shadow="0">
      <root>
        <mxCell id="0" />
        <mxCell id="1" parent="0" />
        <mxCell id="677b7b8949515195-1" value="" style="whiteSpace=wrap;html=1;rounded=0;shadow=0;labelBackgroundColor=none;strokeColor=#000000;strokeWidth=1;fillColor=none;fontFamily=Verdana;fontSize=12;fontColor=#000000;align=center;comic=1;" parent="1" vertex="1">
          <mxGeometry x="20" y="70" width="1060" height="550" as="geometry" />
        </mxCell>
        <mxCell id="3aGJddo-5EH4ExrnTLLF-4" value="&lt;font face=&quot;Tahoma&quot; style=&quot;font-size: 20px;&quot;&gt;Grades Reports&lt;/font&gt;" style="text;strokeColor=none;fillColor=none;html=1;fontSize=24;fontStyle=1;verticalAlign=middle;align=center;" parent="1" vertex="1">
          <mxGeometry x="440.5" y="70" width="220" height="40" as="geometry" />
        </mxCell>
        <mxCell id="b_-qBEc8-tPpr0zeS2S6-1" value="&lt;font style=&quot;font-size: 18px;&quot;&gt;fourthwallacademy.com/Dashboard/Grades&lt;/font&gt;" style="html=1;strokeWidth=1;shadow=0;dashed=0;shape=mxgraph.ios7ui.url;fillColor=#e0e0e0;strokeColor=#c0c0c0;buttonText=;strokeColor2=#222222;fontColor=#222222;fontSize=8;spacingTop=2;align=center;whiteSpace=wrap;" parent="1" vertex="1">
          <mxGeometry x="25.5" y="20" width="1050" height="40" as="geometry" />
        </mxCell>
        <mxCell id="ZwHE_Ob0DUc1sspuv7PX-6" value="Apply" style="html=1;shadow=0;dashed=0;shape=mxgraph.bootstrap.rrect;rSize=5;fillColor=#0085FC;strokeColor=none;align=center;spacing=15;fontSize=14;fontColor=#ffffff;sketch=0;" parent="1" vertex="1">
          <mxGeometry x="853.7" y="120" width="60" height="30" as="geometry" />
        </mxCell>
        <mxCell id="MvRHuvZ1edDw_HGWbF9z-59" value="" style="verticalLabelPosition=bottom;shadow=0;dashed=0;align=center;html=1;verticalAlign=top;strokeWidth=1;shape=mxgraph.mockup.navigation.scrollBar;strokeColor=#999999;barPos=99.394;fillColor2=#99ddff;strokeColor2=none;direction=north;" parent="1" vertex="1">
          <mxGeometry x="1050" y="280" width="20" height="320" as="geometry" />
        </mxCell>
        <mxCell id="yOuiwqaRR13RCL1DA1aZ-59" value="Order:" style="text;html=1;align=center;verticalAlign=middle;whiteSpace=wrap;rounded=0;" parent="1" vertex="1">
          <mxGeometry x="30" y="123" width="50" height="30" as="geometry" />
        </mxCell>
        <mxCell id="yOuiwqaRR13RCL1DA1aZ-60" value="Student" style="html=1;shadow=0;dashed=0;shape=mxgraph.bootstrap.rrect;rSize=5;strokeColor=none;strokeWidth=1;fillColor=#6C767D;fontColor=#ffffff;whiteSpace=wrap;align=right;verticalAlign=middle;fontStyle=0;fontSize=14;spacingRight=20;" parent="1" vertex="1">
          <mxGeometry x="80" y="124.5" width="140" height="27" as="geometry" />
        </mxCell>
        <mxCell id="yOuiwqaRR13RCL1DA1aZ-61" value="" style="shape=triangle;direction=south;fillColor=#ffffff;strokeColor=none;perimeter=none;" parent="yOuiwqaRR13RCL1DA1aZ-60" vertex="1">
          <mxGeometry x="1" y="0.5" width="10" height="5" relative="1" as="geometry">
            <mxPoint x="-17" y="-2.5" as="offset" />
          </mxGeometry>
        </mxCell>
        <mxCell id="yOuiwqaRR13RCL1DA1aZ-62" value="Search" style="strokeWidth=1;shadow=0;dashed=0;align=center;html=1;shape=mxgraph.mockup.forms.searchBox;strokeColor=#999999;mainText=;strokeColor2=#008cff;fontColor=#666666;fontSize=17;align=left;spacingLeft=3;whiteSpace=wrap;" parent="1" vertex="1">
          <mxGeometry x="670" y="120" width="150" height="30" as="geometry" />
        </mxCell>
        <mxCell id="yOuiwqaRR13RCL1DA1aZ-63" value="Overall" style="shape=table;startSize=30;container=1;collapsible=0;childLayout=tableLayout;strokeColor=#36393d;fontSize=16;fillColor=#cce5ff;fontStyle=1" parent="1" vertex="1">
          <mxGeometry x="40" y="160" width="1030" height="110" as="geometry" />
        </mxCell>
        <mxCell id="yOuiwqaRR13RCL1DA1aZ-68" value="" style="shape=tableRow;horizontal=0;startSize=0;swimlaneHead=0;swimlaneBody=0;strokeColor=inherit;top=0;left=0;bottom=0;right=0;collapsible=0;dropTarget=0;fillColor=none;points=[[0,0.5],[1,0.5]];portConstraint=eastwest;fontSize=16;" parent="yOuiwqaRR13RCL1DA1aZ-63" vertex="1">
          <mxGeometry y="30" width="1030" height="42" as="geometry" />
        </mxCell>
        <mxCell id="yOuiwqaRR13RCL1DA1aZ-69" value="Min Grade" style="shape=partialRectangle;html=1;whiteSpace=wrap;connectable=0;strokeColor=#36393d;overflow=hidden;fillColor=#cce5ff;top=0;left=0;bottom=0;right=0;pointerEvents=1;fontSize=16;" parent="yOuiwqaRR13RCL1DA1aZ-68" vertex="1">
          <mxGeometry width="343" height="42" as="geometry">
            <mxRectangle width="343" height="42" as="alternateBounds" />
          </mxGeometry>
        </mxCell>
        <mxCell id="yOuiwqaRR13RCL1DA1aZ-70" value="Avg Grade" style="shape=partialRectangle;html=1;whiteSpace=wrap;connectable=0;strokeColor=#36393d;overflow=hidden;fillColor=#cce5ff;top=0;left=0;bottom=0;right=0;pointerEvents=1;fontSize=16;" parent="yOuiwqaRR13RCL1DA1aZ-68" vertex="1">
          <mxGeometry x="343" width="343" height="42" as="geometry">
            <mxRectangle width="343" height="42" as="alternateBounds" />
          </mxGeometry>
        </mxCell>
        <mxCell id="yOuiwqaRR13RCL1DA1aZ-71" value="Max Grade" style="shape=partialRectangle;html=1;whiteSpace=wrap;connectable=0;strokeColor=#36393d;overflow=hidden;fillColor=#cce5ff;top=0;left=0;bottom=0;right=0;pointerEvents=1;fontSize=16;" parent="yOuiwqaRR13RCL1DA1aZ-68" vertex="1">
          <mxGeometry x="686" width="344" height="42" as="geometry">
            <mxRectangle width="344" height="42" as="alternateBounds" />
          </mxGeometry>
        </mxCell>
        <mxCell id="yOuiwqaRR13RCL1DA1aZ-72" value="" style="shape=tableRow;horizontal=0;startSize=0;swimlaneHead=0;swimlaneBody=0;strokeColor=inherit;top=0;left=0;bottom=0;right=0;collapsible=0;dropTarget=0;fillColor=none;points=[[0,0.5],[1,0.5]];portConstraint=eastwest;fontSize=16;" parent="yOuiwqaRR13RCL1DA1aZ-63" vertex="1">
          <mxGeometry y="72" width="1030" height="38" as="geometry" />
        </mxCell>
        <mxCell id="yOuiwqaRR13RCL1DA1aZ-73" value="60" style="shape=partialRectangle;html=1;whiteSpace=wrap;connectable=0;strokeColor=#36393d;overflow=hidden;fillColor=#cce5ff;top=0;left=0;bottom=0;right=0;pointerEvents=1;fontSize=16;" parent="yOuiwqaRR13RCL1DA1aZ-72" vertex="1">
          <mxGeometry width="343" height="38" as="geometry">
            <mxRectangle width="343" height="38" as="alternateBounds" />
          </mxGeometry>
        </mxCell>
        <mxCell id="yOuiwqaRR13RCL1DA1aZ-74" value="82" style="shape=partialRectangle;html=1;whiteSpace=wrap;connectable=0;strokeColor=#36393d;overflow=hidden;fillColor=#cce5ff;top=0;left=0;bottom=0;right=0;pointerEvents=1;fontSize=16;" parent="yOuiwqaRR13RCL1DA1aZ-72" vertex="1">
          <mxGeometry x="343" width="343" height="38" as="geometry">
            <mxRectangle width="343" height="38" as="alternateBounds" />
          </mxGeometry>
        </mxCell>
        <mxCell id="yOuiwqaRR13RCL1DA1aZ-75" value="98" style="shape=partialRectangle;html=1;whiteSpace=wrap;connectable=0;strokeColor=#36393d;overflow=hidden;fillColor=#cce5ff;top=0;left=0;bottom=0;right=0;pointerEvents=1;fontSize=16;" parent="yOuiwqaRR13RCL1DA1aZ-72" vertex="1">
          <mxGeometry x="686" width="344" height="38" as="geometry">
            <mxRectangle width="344" height="38" as="alternateBounds" />
          </mxGeometry>
        </mxCell>
        <mxCell id="yOuiwqaRR13RCL1DA1aZ-76" value="" style="shape=table;startSize=0;container=1;collapsible=0;childLayout=tableLayout;fontSize=16;" parent="1" vertex="1">
          <mxGeometry x="40" y="280" width="1000" height="327" as="geometry" />
        </mxCell>
        <mxCell id="yOuiwqaRR13RCL1DA1aZ-77" value="" style="shape=tableRow;horizontal=0;startSize=0;swimlaneHead=0;swimlaneBody=0;strokeColor=inherit;top=0;left=0;bottom=0;right=0;collapsible=0;dropTarget=0;fillColor=none;points=[[0,0.5],[1,0.5]];portConstraint=eastwest;fontSize=16;" parent="yOuiwqaRR13RCL1DA1aZ-76" vertex="1">
          <mxGeometry width="1000" height="47" as="geometry" />
        </mxCell>
        <mxCell id="yOuiwqaRR13RCL1DA1aZ-78" value="&lt;b&gt;Student&lt;/b&gt;" style="shape=partialRectangle;html=1;whiteSpace=wrap;connectable=0;strokeColor=inherit;overflow=hidden;fillColor=none;top=0;left=0;bottom=0;right=0;pointerEvents=1;fontSize=16;" parent="yOuiwqaRR13RCL1DA1aZ-77" vertex="1">
          <mxGeometry width="380" height="47" as="geometry">
            <mxRectangle width="380" height="47" as="alternateBounds" />
          </mxGeometry>
        </mxCell>
        <mxCell id="yOuiwqaRR13RCL1DA1aZ-79" value="&lt;b&gt;Min Grade&lt;/b&gt;" style="shape=partialRectangle;html=1;whiteSpace=wrap;connectable=0;strokeColor=inherit;overflow=hidden;fillColor=none;top=0;left=0;bottom=0;right=0;pointerEvents=1;fontSize=16;" parent="yOuiwqaRR13RCL1DA1aZ-77" vertex="1">
          <mxGeometry x="380" width="220" height="47" as="geometry">
            <mxRectangle width="220" height="47" as="alternateBounds" />
          </mxGeometry>
        </mxCell>
        <mxCell id="yOuiwqaRR13RCL1DA1aZ-89" value="&lt;b&gt;Avg Grade&lt;/b&gt;" style="shape=partialRectangle;html=1;whiteSpace=wrap;connectable=0;strokeColor=inherit;overflow=hidden;fillColor=none;top=0;left=0;bottom=0;right=0;pointerEvents=1;fontSize=16;" parent="yOuiwqaRR13RCL1DA1aZ-77" vertex="1">
          <mxGeometry x="600" width="210" height="47" as="geometry">
            <mxRectangle width="210" height="47" as="alternateBounds" />
          </mxGeometry>
        </mxCell>
        <mxCell id="yOuiwqaRR13RCL1DA1aZ-92" value="&lt;b&gt;Max Grade&lt;/b&gt;" style="shape=partialRectangle;html=1;whiteSpace=wrap;connectable=0;strokeColor=inherit;overflow=hidden;fillColor=none;top=0;left=0;bottom=0;right=0;pointerEvents=1;fontSize=16;" parent="yOuiwqaRR13RCL1DA1aZ-77" vertex="1">
          <mxGeometry x="810" width="190" height="47" as="geometry">
            <mxRectangle width="190" height="47" as="alternateBounds" />
          </mxGeometry>
        </mxCell>
        <mxCell id="yOuiwqaRR13RCL1DA1aZ-81" value="" style="shape=tableRow;horizontal=0;startSize=0;swimlaneHead=0;swimlaneBody=0;strokeColor=inherit;top=0;left=0;bottom=0;right=0;collapsible=0;dropTarget=0;fillColor=none;points=[[0,0.5],[1,0.5]];portConstraint=eastwest;fontSize=16;" parent="yOuiwqaRR13RCL1DA1aZ-76" vertex="1">
          <mxGeometry y="47" width="1000" height="47" as="geometry" />
        </mxCell>
        <mxCell id="yOuiwqaRR13RCL1DA1aZ-82" value="Astral Whisper" style="shape=partialRectangle;html=1;whiteSpace=wrap;connectable=0;strokeColor=#36393d;overflow=hidden;fillColor=#eeeeee;top=0;left=0;bottom=0;right=0;pointerEvents=1;fontSize=16;" parent="yOuiwqaRR13RCL1DA1aZ-81" vertex="1">
          <mxGeometry width="380" height="47" as="geometry">
            <mxRectangle width="380" height="47" as="alternateBounds" />
          </mxGeometry>
        </mxCell>
        <mxCell id="yOuiwqaRR13RCL1DA1aZ-83" value="81" style="shape=partialRectangle;html=1;whiteSpace=wrap;connectable=0;strokeColor=#36393d;overflow=hidden;fillColor=#eeeeee;top=0;left=0;bottom=0;right=0;pointerEvents=1;fontSize=16;" parent="yOuiwqaRR13RCL1DA1aZ-81" vertex="1">
          <mxGeometry x="380" width="220" height="47" as="geometry">
            <mxRectangle width="220" height="47" as="alternateBounds" />
          </mxGeometry>
        </mxCell>
        <mxCell id="yOuiwqaRR13RCL1DA1aZ-90" value="87" style="shape=partialRectangle;html=1;whiteSpace=wrap;connectable=0;strokeColor=#36393d;overflow=hidden;fillColor=#eeeeee;top=0;left=0;bottom=0;right=0;pointerEvents=1;fontSize=16;" parent="yOuiwqaRR13RCL1DA1aZ-81" vertex="1">
          <mxGeometry x="600" width="210" height="47" as="geometry">
            <mxRectangle width="210" height="47" as="alternateBounds" />
          </mxGeometry>
        </mxCell>
        <mxCell id="yOuiwqaRR13RCL1DA1aZ-93" value="89" style="shape=partialRectangle;html=1;whiteSpace=wrap;connectable=0;strokeColor=#36393d;overflow=hidden;fillColor=#eeeeee;top=0;left=0;bottom=0;right=0;pointerEvents=1;fontSize=16;" parent="yOuiwqaRR13RCL1DA1aZ-81" vertex="1">
          <mxGeometry x="810" width="190" height="47" as="geometry">
            <mxRectangle width="190" height="47" as="alternateBounds" />
          </mxGeometry>
        </mxCell>
        <mxCell id="yOuiwqaRR13RCL1DA1aZ-110" style="shape=tableRow;horizontal=0;startSize=0;swimlaneHead=0;swimlaneBody=0;strokeColor=inherit;top=0;left=0;bottom=0;right=0;collapsible=0;dropTarget=0;fillColor=none;points=[[0,0.5],[1,0.5]];portConstraint=eastwest;fontSize=16;" parent="yOuiwqaRR13RCL1DA1aZ-76" vertex="1">
          <mxGeometry y="94" width="1000" height="47" as="geometry" />
        </mxCell>
        <mxCell id="yOuiwqaRR13RCL1DA1aZ-111" value="Aurora" style="shape=partialRectangle;html=1;whiteSpace=wrap;connectable=0;strokeColor=#36393d;overflow=hidden;fillColor=#f9f7ed;top=0;left=0;bottom=0;right=0;pointerEvents=1;fontSize=16;" parent="yOuiwqaRR13RCL1DA1aZ-110" vertex="1">
          <mxGeometry width="380" height="47" as="geometry">
            <mxRectangle width="380" height="47" as="alternateBounds" />
          </mxGeometry>
        </mxCell>
        <mxCell id="yOuiwqaRR13RCL1DA1aZ-112" value="76" style="shape=partialRectangle;html=1;whiteSpace=wrap;connectable=0;strokeColor=#36393d;overflow=hidden;fillColor=#f9f7ed;top=0;left=0;bottom=0;right=0;pointerEvents=1;fontSize=16;" parent="yOuiwqaRR13RCL1DA1aZ-110" vertex="1">
          <mxGeometry x="380" width="220" height="47" as="geometry">
            <mxRectangle width="220" height="47" as="alternateBounds" />
          </mxGeometry>
        </mxCell>
        <mxCell id="yOuiwqaRR13RCL1DA1aZ-113" value="79" style="shape=partialRectangle;html=1;whiteSpace=wrap;connectable=0;strokeColor=#36393d;overflow=hidden;fillColor=#f9f7ed;top=0;left=0;bottom=0;right=0;pointerEvents=1;fontSize=16;" parent="yOuiwqaRR13RCL1DA1aZ-110" vertex="1">
          <mxGeometry x="600" width="210" height="47" as="geometry">
            <mxRectangle width="210" height="47" as="alternateBounds" />
          </mxGeometry>
        </mxCell>
        <mxCell id="yOuiwqaRR13RCL1DA1aZ-114" value="81" style="shape=partialRectangle;html=1;whiteSpace=wrap;connectable=0;strokeColor=#36393d;overflow=hidden;fillColor=#f9f7ed;top=0;left=0;bottom=0;right=0;pointerEvents=1;fontSize=16;" parent="yOuiwqaRR13RCL1DA1aZ-110" vertex="1">
          <mxGeometry x="810" width="190" height="47" as="geometry">
            <mxRectangle width="190" height="47" as="alternateBounds" />
          </mxGeometry>
        </mxCell>
        <mxCell id="yOuiwqaRR13RCL1DA1aZ-85" value="" style="shape=tableRow;horizontal=0;startSize=0;swimlaneHead=0;swimlaneBody=0;strokeColor=inherit;top=0;left=0;bottom=0;right=0;collapsible=0;dropTarget=0;fillColor=none;points=[[0,0.5],[1,0.5]];portConstraint=eastwest;fontSize=16;" parent="yOuiwqaRR13RCL1DA1aZ-76" vertex="1">
          <mxGeometry y="141" width="1000" height="46" as="geometry" />
        </mxCell>
        <mxCell id="yOuiwqaRR13RCL1DA1aZ-86" value="Blaze" style="shape=partialRectangle;html=1;whiteSpace=wrap;connectable=0;strokeColor=#36393d;overflow=hidden;fillColor=#eeeeee;top=0;left=0;bottom=0;right=0;pointerEvents=1;fontSize=16;" parent="yOuiwqaRR13RCL1DA1aZ-85" vertex="1">
          <mxGeometry width="380" height="46" as="geometry">
            <mxRectangle width="380" height="46" as="alternateBounds" />
          </mxGeometry>
        </mxCell>
        <mxCell id="yOuiwqaRR13RCL1DA1aZ-87" value="89" style="shape=partialRectangle;html=1;whiteSpace=wrap;connectable=0;strokeColor=#36393d;overflow=hidden;fillColor=#eeeeee;top=0;left=0;bottom=0;right=0;pointerEvents=1;fontSize=16;" parent="yOuiwqaRR13RCL1DA1aZ-85" vertex="1">
          <mxGeometry x="380" width="220" height="46" as="geometry">
            <mxRectangle width="220" height="46" as="alternateBounds" />
          </mxGeometry>
        </mxCell>
        <mxCell id="yOuiwqaRR13RCL1DA1aZ-91" value="90" style="shape=partialRectangle;html=1;whiteSpace=wrap;connectable=0;strokeColor=#36393d;overflow=hidden;fillColor=#eeeeee;top=0;left=0;bottom=0;right=0;pointerEvents=1;fontSize=16;" parent="yOuiwqaRR13RCL1DA1aZ-85" vertex="1">
          <mxGeometry x="600" width="210" height="46" as="geometry">
            <mxRectangle width="210" height="46" as="alternateBounds" />
          </mxGeometry>
        </mxCell>
        <mxCell id="yOuiwqaRR13RCL1DA1aZ-94" value="93" style="shape=partialRectangle;html=1;whiteSpace=wrap;connectable=0;strokeColor=#36393d;overflow=hidden;fillColor=#eeeeee;top=0;left=0;bottom=0;right=0;pointerEvents=1;fontSize=16;" parent="yOuiwqaRR13RCL1DA1aZ-85" vertex="1">
          <mxGeometry x="810" width="190" height="46" as="geometry">
            <mxRectangle width="190" height="46" as="alternateBounds" />
          </mxGeometry>
        </mxCell>
        <mxCell id="yOuiwqaRR13RCL1DA1aZ-95" style="shape=tableRow;horizontal=0;startSize=0;swimlaneHead=0;swimlaneBody=0;strokeColor=inherit;top=0;left=0;bottom=0;right=0;collapsible=0;dropTarget=0;fillColor=none;points=[[0,0.5],[1,0.5]];portConstraint=eastwest;fontSize=16;" parent="yOuiwqaRR13RCL1DA1aZ-76" vertex="1">
          <mxGeometry y="187" width="1000" height="47" as="geometry" />
        </mxCell>
        <mxCell id="yOuiwqaRR13RCL1DA1aZ-96" value="Blur" style="shape=partialRectangle;html=1;whiteSpace=wrap;connectable=0;strokeColor=#36393d;overflow=hidden;fillColor=#f9f7ed;top=0;left=0;bottom=0;right=0;pointerEvents=1;fontSize=16;" parent="yOuiwqaRR13RCL1DA1aZ-95" vertex="1">
          <mxGeometry width="380" height="47" as="geometry">
            <mxRectangle width="380" height="47" as="alternateBounds" />
          </mxGeometry>
        </mxCell>
        <mxCell id="yOuiwqaRR13RCL1DA1aZ-97" value="92" style="shape=partialRectangle;html=1;whiteSpace=wrap;connectable=0;strokeColor=#36393d;overflow=hidden;fillColor=#f9f7ed;top=0;left=0;bottom=0;right=0;pointerEvents=1;fontSize=16;" parent="yOuiwqaRR13RCL1DA1aZ-95" vertex="1">
          <mxGeometry x="380" width="220" height="47" as="geometry">
            <mxRectangle width="220" height="47" as="alternateBounds" />
          </mxGeometry>
        </mxCell>
        <mxCell id="yOuiwqaRR13RCL1DA1aZ-98" value="93" style="shape=partialRectangle;html=1;whiteSpace=wrap;connectable=0;strokeColor=#36393d;overflow=hidden;fillColor=#f9f7ed;top=0;left=0;bottom=0;right=0;pointerEvents=1;fontSize=16;" parent="yOuiwqaRR13RCL1DA1aZ-95" vertex="1">
          <mxGeometry x="600" width="210" height="47" as="geometry">
            <mxRectangle width="210" height="47" as="alternateBounds" />
          </mxGeometry>
        </mxCell>
        <mxCell id="yOuiwqaRR13RCL1DA1aZ-99" value="96" style="shape=partialRectangle;html=1;whiteSpace=wrap;connectable=0;strokeColor=#36393d;overflow=hidden;fillColor=#f9f7ed;top=0;left=0;bottom=0;right=0;pointerEvents=1;fontSize=16;" parent="yOuiwqaRR13RCL1DA1aZ-95" vertex="1">
          <mxGeometry x="810" width="190" height="47" as="geometry">
            <mxRectangle width="190" height="47" as="alternateBounds" />
          </mxGeometry>
        </mxCell>
        <mxCell id="yOuiwqaRR13RCL1DA1aZ-100" style="shape=tableRow;horizontal=0;startSize=0;swimlaneHead=0;swimlaneBody=0;strokeColor=inherit;top=0;left=0;bottom=0;right=0;collapsible=0;dropTarget=0;fillColor=none;points=[[0,0.5],[1,0.5]];portConstraint=eastwest;fontSize=16;" parent="yOuiwqaRR13RCL1DA1aZ-76" vertex="1">
          <mxGeometry y="234" width="1000" height="46" as="geometry" />
        </mxCell>
        <mxCell id="yOuiwqaRR13RCL1DA1aZ-101" value="Celestial Sprite" style="shape=partialRectangle;html=1;whiteSpace=wrap;connectable=0;strokeColor=#36393d;overflow=hidden;fillColor=#eeeeee;top=0;left=0;bottom=0;right=0;pointerEvents=1;fontSize=16;" parent="yOuiwqaRR13RCL1DA1aZ-100" vertex="1">
          <mxGeometry width="380" height="46" as="geometry">
            <mxRectangle width="380" height="46" as="alternateBounds" />
          </mxGeometry>
        </mxCell>
        <mxCell id="yOuiwqaRR13RCL1DA1aZ-102" value="84" style="shape=partialRectangle;html=1;whiteSpace=wrap;connectable=0;strokeColor=#36393d;overflow=hidden;fillColor=#eeeeee;top=0;left=0;bottom=0;right=0;pointerEvents=1;fontSize=16;" parent="yOuiwqaRR13RCL1DA1aZ-100" vertex="1">
          <mxGeometry x="380" width="220" height="46" as="geometry">
            <mxRectangle width="220" height="46" as="alternateBounds" />
          </mxGeometry>
        </mxCell>
        <mxCell id="yOuiwqaRR13RCL1DA1aZ-103" value="85" style="shape=partialRectangle;html=1;whiteSpace=wrap;connectable=0;strokeColor=#36393d;overflow=hidden;fillColor=#eeeeee;top=0;left=0;bottom=0;right=0;pointerEvents=1;fontSize=16;" parent="yOuiwqaRR13RCL1DA1aZ-100" vertex="1">
          <mxGeometry x="600" width="210" height="46" as="geometry">
            <mxRectangle width="210" height="46" as="alternateBounds" />
          </mxGeometry>
        </mxCell>
        <mxCell id="yOuiwqaRR13RCL1DA1aZ-104" value="89" style="shape=partialRectangle;html=1;whiteSpace=wrap;connectable=0;strokeColor=#36393d;overflow=hidden;fillColor=#eeeeee;top=0;left=0;bottom=0;right=0;pointerEvents=1;fontSize=16;" parent="yOuiwqaRR13RCL1DA1aZ-100" vertex="1">
          <mxGeometry x="810" width="190" height="46" as="geometry">
            <mxRectangle width="190" height="46" as="alternateBounds" />
          </mxGeometry>
        </mxCell>
        <mxCell id="yOuiwqaRR13RCL1DA1aZ-105" style="shape=tableRow;horizontal=0;startSize=0;swimlaneHead=0;swimlaneBody=0;strokeColor=inherit;top=0;left=0;bottom=0;right=0;collapsible=0;dropTarget=0;fillColor=none;points=[[0,0.5],[1,0.5]];portConstraint=eastwest;fontSize=16;" parent="yOuiwqaRR13RCL1DA1aZ-76" vertex="1">
          <mxGeometry y="280" width="1000" height="47" as="geometry" />
        </mxCell>
        <mxCell id="yOuiwqaRR13RCL1DA1aZ-106" value="Crimson Shadow" style="shape=partialRectangle;html=1;whiteSpace=wrap;connectable=0;strokeColor=#36393d;overflow=hidden;fillColor=#f9f7ed;top=0;left=0;bottom=0;right=0;pointerEvents=1;fontSize=16;" parent="yOuiwqaRR13RCL1DA1aZ-105" vertex="1">
          <mxGeometry width="380" height="47" as="geometry">
            <mxRectangle width="380" height="47" as="alternateBounds" />
          </mxGeometry>
        </mxCell>
        <mxCell id="yOuiwqaRR13RCL1DA1aZ-107" value="64" style="shape=partialRectangle;html=1;whiteSpace=wrap;connectable=0;strokeColor=#36393d;overflow=hidden;fillColor=#f9f7ed;top=0;left=0;bottom=0;right=0;pointerEvents=1;fontSize=16;" parent="yOuiwqaRR13RCL1DA1aZ-105" vertex="1">
          <mxGeometry x="380" width="220" height="47" as="geometry">
            <mxRectangle width="220" height="47" as="alternateBounds" />
          </mxGeometry>
        </mxCell>
        <mxCell id="yOuiwqaRR13RCL1DA1aZ-108" value="71" style="shape=partialRectangle;html=1;whiteSpace=wrap;connectable=0;strokeColor=#36393d;overflow=hidden;fillColor=#f9f7ed;top=0;left=0;bottom=0;right=0;pointerEvents=1;fontSize=16;" parent="yOuiwqaRR13RCL1DA1aZ-105" vertex="1">
          <mxGeometry x="600" width="210" height="47" as="geometry">
            <mxRectangle width="210" height="47" as="alternateBounds" />
          </mxGeometry>
        </mxCell>
        <mxCell id="yOuiwqaRR13RCL1DA1aZ-109" value="82" style="shape=partialRectangle;html=1;whiteSpace=wrap;connectable=0;strokeColor=#36393d;overflow=hidden;fillColor=#f9f7ed;top=0;left=0;bottom=0;right=0;pointerEvents=1;fontSize=16;" parent="yOuiwqaRR13RCL1DA1aZ-105" vertex="1">
          <mxGeometry x="810" width="190" height="47" as="geometry">
            <mxRectangle width="190" height="47" as="alternateBounds" />
          </mxGeometry>
        </mxCell>
        <mxCell id="yOuiwqaRR13RCL1DA1aZ-116" value="&lt;font face=&quot;Helvetica&quot;&gt;09-01-2022&lt;/font&gt;" style="rounded=1;arcSize=9;fillColor=#F7F8F9;align=left;spacingLeft=5;strokeColor=#DEE1E6;html=1;strokeWidth=2;fontColor=#596780;fontSize=12;sketch=1;hachureGap=4;pointerEvents=0;fontFamily=Architects Daughter;fontSource=https%3A%2F%2Ffonts.googleapis.com%2Fcss%3Ffamily%3DArchitects%2BDaughter;" parent="1" vertex="1">
          <mxGeometry x="290" y="117" width="150" height="33" as="geometry" />
        </mxCell>
        <mxCell id="yOuiwqaRR13RCL1DA1aZ-117" value="" style="shape=mxgraph.gmdl.calendar;fillColor=#5A6881;strokeColor=none;sketch=0;hachureGap=4;pointerEvents=0;fontFamily=Architects Daughter;fontSource=https%3A%2F%2Ffonts.googleapis.com%2Fcss%3Ffamily%3DArchitects%2BDaughter;fontSize=20;" parent="yOuiwqaRR13RCL1DA1aZ-116" vertex="1">
          <mxGeometry x="1" y="0.5" width="18" height="18" relative="1" as="geometry">
            <mxPoint x="-29" y="-9" as="offset" />
          </mxGeometry>
        </mxCell>
        <mxCell id="yOuiwqaRR13RCL1DA1aZ-118" value="From" style="text;html=1;align=center;verticalAlign=middle;whiteSpace=wrap;rounded=0;" parent="1" vertex="1">
          <mxGeometry x="250" y="117" width="40" height="30" as="geometry" />
        </mxCell>
        <mxCell id="yOuiwqaRR13RCL1DA1aZ-119" value="&lt;font face=&quot;Helvetica&quot;&gt;31-12-2022&lt;/font&gt;" style="rounded=1;arcSize=9;fillColor=#F7F8F9;align=left;spacingLeft=5;strokeColor=#DEE1E6;html=1;strokeWidth=2;fontColor=#596780;fontSize=12;sketch=1;hachureGap=4;pointerEvents=0;fontFamily=Architects Daughter;fontSource=https%3A%2F%2Ffonts.googleapis.com%2Fcss%3Ffamily%3DArchitects%2BDaughter;" parent="1" vertex="1">
          <mxGeometry x="495" y="118.5" width="150" height="33" as="geometry" />
        </mxCell>
        <mxCell id="yOuiwqaRR13RCL1DA1aZ-120" value="" style="shape=mxgraph.gmdl.calendar;fillColor=#5A6881;strokeColor=none;sketch=0;hachureGap=4;pointerEvents=0;fontFamily=Architects Daughter;fontSource=https%3A%2F%2Ffonts.googleapis.com%2Fcss%3Ffamily%3DArchitects%2BDaughter;fontSize=20;" parent="yOuiwqaRR13RCL1DA1aZ-119" vertex="1">
          <mxGeometry x="1" y="0.5" width="18" height="18" relative="1" as="geometry">
            <mxPoint x="-29" y="-9" as="offset" />
          </mxGeometry>
        </mxCell>
        <mxCell id="yOuiwqaRR13RCL1DA1aZ-121" value="To" style="text;html=1;align=center;verticalAlign=middle;whiteSpace=wrap;rounded=0;" parent="1" vertex="1">
          <mxGeometry x="455" y="118.5" width="40" height="30" as="geometry" />
        </mxCell>
      </root>
    </mxGraphModel>
  </diagram>
</mxfile>
